<?xml version="1.0" encoding="UTF-8"?>
<svg width="1200pt" height="1200pt" version="1.1" viewBox="0 0 1200 1200" xmlns="http://www.w3.org/2000/svg">
 <path d="m674.95 683.81v-493.74c-5.2969-153.19-226.26-153.74-231.74 0v493.74c-209.06 119.91-125.44 439.03 115.78 441.19 69.938-0.09375 136.22-31.172 180.98-84.938 44.766-53.719 63.375-124.55 50.812-193.31-12.562-68.812-54.984-128.48-115.83-162.94zm-115.97 367.45c-75-0.23438-140.11-51.891-157.31-124.92-17.25-72.984 17.859-148.31 84.891-182.06 18.703-9.3281 30.516-28.5 30.422-49.406v-504.79c-0.046875-11.156 4.4062-21.938 12.281-29.812 7.9219-7.9219 18.656-12.375 29.812-12.375 11.203 0 21.938 4.4531 29.859 12.375 7.875 7.875 12.328 18.656 12.281 29.812v504.79c-0.09375 20.859 11.625 39.984 30.234 49.406 67.125 33.656 102.33 109.03 85.078 182.11-17.25 73.078-82.453 124.78-157.55 124.87z"/>
 <path d="m558.98 778.6c-60.844 0.1875-110.06 49.594-110.06 110.44 5.25 146.26 215.16 146.02 220.31 0 0-60.938-49.312-110.34-110.25-110.44z"/>
 <path d="m227.34 284.06h153.19c10.078-0.14062 18.141-8.3438 18.141-18.422 0-10.125-8.0625-18.328-18.141-18.469h-153.19c-10.078 0.14062-18.188 8.3438-18.188 18.469 0 10.078 8.1094 18.281 18.188 18.422z"/>
 <path d="m398.95 385.26c0-4.875-1.9688-9.6094-5.3906-13.031-3.4688-3.4688-8.1562-5.4375-13.031-5.3906h-174.52c-10.172 0-18.375 8.25-18.375 18.422s8.2031 18.375 18.375 18.422h174.52c4.875 0 9.5625-1.9219 13.031-5.3906 3.4219-3.4688 5.3906-8.1562 5.3906-13.031z"/>
 <path d="m260.81 486.47c-10.078 0.14062-18.188 8.3438-18.188 18.422s8.1094 18.281 18.188 18.422h119.72c10.078-0.14062 18.141-8.3438 18.141-18.422s-8.0625-18.281-18.141-18.422z"/>
 <path d="m398.95 624.52c0-4.875-1.9688-9.5625-5.3906-13.031-3.4688-3.4688-8.1562-5.3906-13.031-5.3906h-153.19c-4.9219-0.046875-9.6094 1.9219-13.078 5.3438-3.4688 3.4688-5.4375 8.1562-5.4375 13.078s1.9688 9.6094 5.4375 13.078c3.4688 3.4219 8.1562 5.3906 13.078 5.3438h153.19c4.875 0 9.5625-1.9219 13.031-5.3906 3.4219-3.4688 5.3906-8.1562 5.3906-13.031z"/>
 <path d="m750.37 177.42c10.078 1.5938 19.5-5.25 21.094-15.328l7.4062-46.875c1.5938-10.031-5.2969-19.5-15.328-21.094-10.078-1.5938-19.5 5.2969-21.094 15.328l-7.4062 46.875c-0.75 4.875 0.42188 9.7969 3.2812 13.734 2.9062 3.9844 7.2188 6.6094 12.047 7.3594z"/>
 <path d="m839.26 590.48c-4.6875-8.9062-15.656-12.422-24.656-7.8281-9 4.5469-12.609 15.469-8.2031 24.516l21.516 42.281c2.2031 4.4062 6.0469 7.7344 10.734 9.2812 4.6406 1.5469 9.75 1.1719 14.109-1.0781 4.4062-2.2031 7.6875-6.0938 9.1875-10.781s1.0781-9.75-1.1719-14.109z"/>
 <path d="m975.47 501.74-42.234-21.562c-9.0469-4.4531-19.969-0.84375-24.562 8.1562-4.5469 8.9531-1.0781 19.969 7.8281 24.656 16.125 9.3281 33.047 17.203 50.578 23.578 8.4375-0.14062 15.75-5.9531 17.719-14.156 1.9688-8.2031-1.875-16.734-9.3281-20.672z"/>
 <path d="m991.31 328.13-46.781 7.4062v0.046875c-9.9375 1.7344-16.641 11.109-15.047 21.047s10.875 16.781 20.812 15.328l46.781-7.4062h0.046875c9.9375-1.6875 16.688-11.062 15.141-21.047-1.5938-9.9844-10.922-16.828-20.953-15.375z"/>
 <path d="m928.4 178.31c-3.4688-3.4688-8.1562-5.4375-13.078-5.3906-4.875 0-9.5625 1.9219-13.031 5.3906l-33.469 33.562c-3.4688 3.4688-5.4375 8.1562-5.4375 13.078 0 4.875 1.9688 9.6094 5.4375 13.031 3.4688 3.4688 8.1562 5.4375 13.078 5.3906 4.875 0 9.5625-1.9688 13.031-5.4375l33.469-33.562c7.2188-7.2188 7.1719-18.891 0-26.062z"/>
 <path d="m716.81 220.13c-1.6406 0-3.3281 0.046875-4.9688 0.1875v339.98c45.469 1.2656 89.578-15.75 122.39-47.25 32.859-31.5 51.703-74.812 52.359-120.32 0.65625-45.469-16.922-89.344-48.797-121.78-31.922-32.391-75.469-50.719-120.98-50.812z"/>
</svg>
